<mxfile host="app.diagrams.net" agent="Mozilla/5.0 (Windows NT 10.0; Win64; x64; rv:125.0) Gecko/20100101 Firefox/125.0" version="26.0.5">
  <diagram name="Página-1" id="OQ-MVExIqzkTRYmhxJQo">
    <mxGraphModel dx="1434" dy="1915" grid="1" gridSize="10" guides="1" tooltips="1" connect="1" arrows="1" fold="1" page="1" pageScale="1" pageWidth="827" pageHeight="1169" math="0" shadow="0">
      <root>
        <mxCell id="0" />
        <mxCell id="1" parent="0" />
        <mxCell id="PcPAfMegnWZi5BnEqdG8-2" value="&lt;div&gt;Linea&lt;/div&gt;" style="swimlane;fontStyle=0;childLayout=stackLayout;horizontal=1;startSize=30;horizontalStack=0;resizeParent=1;resizeParentMax=0;resizeLast=0;collapsible=1;marginBottom=0;whiteSpace=wrap;html=1;" vertex="1" parent="1">
          <mxGeometry x="150" y="140" width="140" height="120" as="geometry" />
        </mxCell>
        <mxCell id="PcPAfMegnWZi5BnEqdG8-3" value="Id linea PK" style="text;strokeColor=none;fillColor=none;align=left;verticalAlign=middle;spacingLeft=4;spacingRight=4;overflow=hidden;points=[[0,0.5],[1,0.5]];portConstraint=eastwest;rotatable=0;whiteSpace=wrap;html=1;" vertex="1" parent="PcPAfMegnWZi5BnEqdG8-2">
          <mxGeometry y="30" width="140" height="30" as="geometry" />
        </mxCell>
        <mxCell id="PcPAfMegnWZi5BnEqdG8-5" value="&lt;div&gt;Orden&lt;/div&gt;" style="text;strokeColor=none;fillColor=none;align=left;verticalAlign=middle;spacingLeft=4;spacingRight=4;overflow=hidden;points=[[0,0.5],[1,0.5]];portConstraint=eastwest;rotatable=0;whiteSpace=wrap;html=1;" vertex="1" parent="PcPAfMegnWZi5BnEqdG8-2">
          <mxGeometry y="60" width="140" height="30" as="geometry" />
        </mxCell>
        <mxCell id="PcPAfMegnWZi5BnEqdG8-43" value="&lt;div&gt;Nº Trenes&lt;/div&gt;" style="text;html=1;align=center;verticalAlign=middle;resizable=0;points=[];autosize=1;strokeColor=none;fillColor=none;" vertex="1" parent="PcPAfMegnWZi5BnEqdG8-2">
          <mxGeometry y="90" width="140" height="30" as="geometry" />
        </mxCell>
        <mxCell id="PcPAfMegnWZi5BnEqdG8-22" style="edgeStyle=orthogonalEdgeStyle;rounded=0;orthogonalLoop=1;jettySize=auto;html=1;exitX=0.5;exitY=1;exitDx=0;exitDy=0;entryX=0.5;entryY=0;entryDx=0;entryDy=0;" edge="1" parent="1" source="PcPAfMegnWZi5BnEqdG8-27" target="PcPAfMegnWZi5BnEqdG8-17">
          <mxGeometry relative="1" as="geometry" />
        </mxCell>
        <mxCell id="PcPAfMegnWZi5BnEqdG8-7" value="Estacion" style="swimlane;fontStyle=0;childLayout=stackLayout;horizontal=1;startSize=30;horizontalStack=0;resizeParent=1;resizeParentMax=0;resizeLast=0;collapsible=1;marginBottom=0;whiteSpace=wrap;html=1;" vertex="1" parent="1">
          <mxGeometry x="454" y="130" width="140" height="90" as="geometry" />
        </mxCell>
        <mxCell id="PcPAfMegnWZi5BnEqdG8-10" value="Id Estacion PK" style="text;strokeColor=none;fillColor=none;align=left;verticalAlign=middle;spacingLeft=4;spacingRight=4;overflow=hidden;points=[[0,0.5],[1,0.5]];portConstraint=eastwest;rotatable=0;whiteSpace=wrap;html=1;" vertex="1" parent="PcPAfMegnWZi5BnEqdG8-7">
          <mxGeometry y="30" width="140" height="30" as="geometry" />
        </mxCell>
        <mxCell id="PcPAfMegnWZi5BnEqdG8-8" value="&lt;div&gt;Id Linea FK&lt;/div&gt;" style="text;strokeColor=none;fillColor=none;align=left;verticalAlign=middle;spacingLeft=4;spacingRight=4;overflow=hidden;points=[[0,0.5],[1,0.5]];portConstraint=eastwest;rotatable=0;whiteSpace=wrap;html=1;" vertex="1" parent="PcPAfMegnWZi5BnEqdG8-7">
          <mxGeometry y="60" width="140" height="30" as="geometry" />
        </mxCell>
        <mxCell id="PcPAfMegnWZi5BnEqdG8-13" style="edgeStyle=orthogonalEdgeStyle;rounded=0;orthogonalLoop=1;jettySize=auto;html=1;exitX=1;exitY=0.5;exitDx=0;exitDy=0;entryX=0;entryY=0.5;entryDx=0;entryDy=0;" edge="1" parent="1" source="PcPAfMegnWZi5BnEqdG8-16" target="PcPAfMegnWZi5BnEqdG8-8">
          <mxGeometry relative="1" as="geometry" />
        </mxCell>
        <mxCell id="PcPAfMegnWZi5BnEqdG8-14" value="&lt;div&gt;METRO MADRID&lt;/div&gt;" style="ellipse;whiteSpace=wrap;html=1;" vertex="1" parent="1">
          <mxGeometry x="350" y="-40" width="80" height="80" as="geometry" />
        </mxCell>
        <mxCell id="PcPAfMegnWZi5BnEqdG8-17" value="&lt;div&gt;Accesos&lt;/div&gt;" style="swimlane;fontStyle=0;childLayout=stackLayout;horizontal=1;startSize=30;horizontalStack=0;resizeParent=1;resizeParentMax=0;resizeLast=0;collapsible=1;marginBottom=0;whiteSpace=wrap;html=1;" vertex="1" parent="1">
          <mxGeometry x="610" y="348" width="140" height="100" as="geometry" />
        </mxCell>
        <mxCell id="PcPAfMegnWZi5BnEqdG8-21" value="ID ACCESO PK" style="text;html=1;align=center;verticalAlign=middle;resizable=0;points=[];autosize=1;strokeColor=none;fillColor=none;" vertex="1" parent="PcPAfMegnWZi5BnEqdG8-17">
          <mxGeometry y="30" width="140" height="30" as="geometry" />
        </mxCell>
        <mxCell id="PcPAfMegnWZi5BnEqdG8-30" value="&lt;div&gt;Estacion pertenece&lt;/div&gt;(ID estacion FK)" style="text;html=1;align=center;verticalAlign=middle;resizable=0;points=[];autosize=1;strokeColor=none;fillColor=none;" vertex="1" parent="PcPAfMegnWZi5BnEqdG8-17">
          <mxGeometry y="60" width="140" height="40" as="geometry" />
        </mxCell>
        <mxCell id="PcPAfMegnWZi5BnEqdG8-23" value="" style="edgeStyle=orthogonalEdgeStyle;rounded=0;orthogonalLoop=1;jettySize=auto;html=1;exitX=1;exitY=0.5;exitDx=0;exitDy=0;entryX=0;entryY=0.5;entryDx=0;entryDy=0;" edge="1" parent="1" source="PcPAfMegnWZi5BnEqdG8-15" target="PcPAfMegnWZi5BnEqdG8-16">
          <mxGeometry relative="1" as="geometry">
            <mxPoint x="290" y="185" as="sourcePoint" />
            <mxPoint x="450" y="215" as="targetPoint" />
          </mxGeometry>
        </mxCell>
        <mxCell id="PcPAfMegnWZi5BnEqdG8-16" value="1,N" style="text;html=1;align=center;verticalAlign=middle;resizable=0;points=[];autosize=1;strokeColor=none;fillColor=none;" vertex="1" parent="1">
          <mxGeometry x="414" y="190" width="40" height="30" as="geometry" />
        </mxCell>
        <mxCell id="PcPAfMegnWZi5BnEqdG8-24" value="" style="edgeStyle=orthogonalEdgeStyle;rounded=0;orthogonalLoop=1;jettySize=auto;html=1;exitX=1;exitY=0.5;exitDx=0;exitDy=0;entryX=0;entryY=0.5;entryDx=0;entryDy=0;" edge="1" parent="1" source="PcPAfMegnWZi5BnEqdG8-3" target="PcPAfMegnWZi5BnEqdG8-15">
          <mxGeometry relative="1" as="geometry">
            <mxPoint x="290" y="185" as="sourcePoint" />
            <mxPoint x="414" y="205" as="targetPoint" />
          </mxGeometry>
        </mxCell>
        <mxCell id="PcPAfMegnWZi5BnEqdG8-15" value="1,N" style="text;html=1;align=center;verticalAlign=middle;resizable=0;points=[];autosize=1;strokeColor=none;fillColor=none;" vertex="1" parent="1">
          <mxGeometry x="290" y="170" width="40" height="30" as="geometry" />
        </mxCell>
        <mxCell id="PcPAfMegnWZi5BnEqdG8-26" value="" style="edgeStyle=orthogonalEdgeStyle;rounded=0;orthogonalLoop=1;jettySize=auto;html=1;exitX=0.5;exitY=1;exitDx=0;exitDy=0;entryX=0.5;entryY=0;entryDx=0;entryDy=0;" edge="1" parent="1" source="PcPAfMegnWZi5BnEqdG8-7" target="PcPAfMegnWZi5BnEqdG8-25">
          <mxGeometry relative="1" as="geometry">
            <mxPoint x="520" y="230" as="sourcePoint" />
            <mxPoint x="344" y="320" as="targetPoint" />
          </mxGeometry>
        </mxCell>
        <mxCell id="PcPAfMegnWZi5BnEqdG8-25" value="&lt;div&gt;1,N&lt;/div&gt;" style="text;html=1;align=center;verticalAlign=middle;resizable=0;points=[];autosize=1;strokeColor=none;fillColor=none;" vertex="1" parent="1">
          <mxGeometry x="504" y="220" width="40" height="30" as="geometry" />
        </mxCell>
        <mxCell id="PcPAfMegnWZi5BnEqdG8-28" value="" style="edgeStyle=orthogonalEdgeStyle;rounded=0;orthogonalLoop=1;jettySize=auto;html=1;exitX=0.5;exitY=1;exitDx=0;exitDy=0;entryX=0.5;entryY=0;entryDx=0;entryDy=0;" edge="1" parent="1" source="PcPAfMegnWZi5BnEqdG8-25" target="PcPAfMegnWZi5BnEqdG8-27">
          <mxGeometry relative="1" as="geometry">
            <mxPoint x="520" y="250" as="sourcePoint" />
            <mxPoint x="344" y="320" as="targetPoint" />
          </mxGeometry>
        </mxCell>
        <mxCell id="PcPAfMegnWZi5BnEqdG8-27" value="1,1" style="text;html=1;align=center;verticalAlign=middle;resizable=0;points=[];autosize=1;strokeColor=none;fillColor=none;" vertex="1" parent="1">
          <mxGeometry x="660" y="318" width="40" height="30" as="geometry" />
        </mxCell>
        <mxCell id="PcPAfMegnWZi5BnEqdG8-38" style="edgeStyle=orthogonalEdgeStyle;rounded=0;orthogonalLoop=1;jettySize=auto;html=1;exitX=0.5;exitY=0;exitDx=0;exitDy=0;entryX=0;entryY=0.25;entryDx=0;entryDy=0;" edge="1" parent="1" source="PcPAfMegnWZi5BnEqdG8-41" target="PcPAfMegnWZi5BnEqdG8-2">
          <mxGeometry relative="1" as="geometry" />
        </mxCell>
        <mxCell id="PcPAfMegnWZi5BnEqdG8-31" value="Trenes" style="swimlane;fontStyle=0;childLayout=stackLayout;horizontal=1;startSize=26;fillColor=none;horizontalStack=0;resizeParent=1;resizeParentMax=0;resizeLast=0;collapsible=1;marginBottom=0;html=1;" vertex="1" parent="1">
          <mxGeometry y="270" width="140" height="78" as="geometry" />
        </mxCell>
        <mxCell id="PcPAfMegnWZi5BnEqdG8-32" value="Id Tren PK" style="text;strokeColor=none;fillColor=none;align=left;verticalAlign=top;spacingLeft=4;spacingRight=4;overflow=hidden;rotatable=0;points=[[0,0.5],[1,0.5]];portConstraint=eastwest;whiteSpace=wrap;html=1;" vertex="1" parent="PcPAfMegnWZi5BnEqdG8-31">
          <mxGeometry y="26" width="140" height="26" as="geometry" />
        </mxCell>
        <mxCell id="PcPAfMegnWZi5BnEqdG8-33" value="Id linea FK" style="text;strokeColor=none;fillColor=none;align=left;verticalAlign=top;spacingLeft=4;spacingRight=4;overflow=hidden;rotatable=0;points=[[0,0.5],[1,0.5]];portConstraint=eastwest;whiteSpace=wrap;html=1;" vertex="1" parent="PcPAfMegnWZi5BnEqdG8-31">
          <mxGeometry y="52" width="140" height="26" as="geometry" />
        </mxCell>
        <mxCell id="PcPAfMegnWZi5BnEqdG8-40" value="" style="edgeStyle=orthogonalEdgeStyle;rounded=0;orthogonalLoop=1;jettySize=auto;html=1;exitX=0.5;exitY=0;exitDx=0;exitDy=0;entryX=0;entryY=0.25;entryDx=0;entryDy=0;" edge="1" parent="1" source="PcPAfMegnWZi5BnEqdG8-31">
          <mxGeometry relative="1" as="geometry">
            <mxPoint x="90" y="350.5" as="sourcePoint" />
            <mxPoint x="70" y="270" as="targetPoint" />
          </mxGeometry>
        </mxCell>
        <mxCell id="PcPAfMegnWZi5BnEqdG8-39" value="&lt;div&gt;0,1&lt;/div&gt;" style="text;html=1;align=center;verticalAlign=middle;resizable=0;points=[];autosize=1;strokeColor=none;fillColor=none;" vertex="1" parent="1">
          <mxGeometry x="50" y="240" width="40" height="30" as="geometry" />
        </mxCell>
        <mxCell id="PcPAfMegnWZi5BnEqdG8-42" value="" style="edgeStyle=orthogonalEdgeStyle;rounded=0;orthogonalLoop=1;jettySize=auto;html=1;exitX=0.5;exitY=0;exitDx=0;exitDy=0;entryX=0;entryY=0.25;entryDx=0;entryDy=0;" edge="1" parent="1" source="PcPAfMegnWZi5BnEqdG8-39" target="PcPAfMegnWZi5BnEqdG8-41">
          <mxGeometry relative="1" as="geometry">
            <mxPoint x="60" y="280" as="sourcePoint" />
            <mxPoint x="150" y="163" as="targetPoint" />
          </mxGeometry>
        </mxCell>
        <mxCell id="PcPAfMegnWZi5BnEqdG8-41" value="1,N" style="text;html=1;align=center;verticalAlign=middle;resizable=0;points=[];autosize=1;strokeColor=none;fillColor=none;" vertex="1" parent="1">
          <mxGeometry x="110" y="150" width="40" height="30" as="geometry" />
        </mxCell>
      </root>
    </mxGraphModel>
  </diagram>
</mxfile>
